<?xml version="1.0" encoding="utf-8"?>
<!-- Generator: Adobe Illustrator 16.0.0, SVG Export Plug-In . SVG Version: 6.00 Build 0)  -->
<!DOCTYPE svg PUBLIC "-//W3C//DTD SVG 1.1//EN" "http://www.w3.org/Graphics/SVG/1.1/DTD/svg11.dtd">
<svg version="1.1" id="_x33_0" xmlns="http://www.w3.org/2000/svg" xmlns:xlink="http://www.w3.org/1999/xlink" x="0px" y="0px"
	 width="512px" height="512px" viewBox="0 0 512 512" enable-background="new 0 0 512 512" xml:space="preserve">
<g>
	<g>
		<path fill="#285FF7" d="M439.76,142.064C420.032,63.128,349.424,8,268.064,8h-24.128C162.576,8,91.968,63.128,72.24,142.064V144
			H192v32c9.392-18.776,26.64-32.306,46.944-37.018l-0.088-0.288c13.992,21.944,36.816,37.922,64.056,42.456L320,184v-40h120
			L439.76,142.064z"/>
	</g>
	<g>
		<path fill="#285FF7" d="M108.512,167.48H99.48c-32.8,0-59.48,26.688-59.48,59.48c0,9.464,2.296,18.902,6.64,27.304L59.936,280
			h7.448C65.232,275.088,64,269.688,64,263.984v-7.734c0-9.816,5.976-18.642,15.088-22.28l18.776-7.512l-0.112-0.208
			c4.624,4.6,10.584,7.808,17.248,8.92l15.624,2.606c7.72,1.28,13.376,7.96,13.376,15.776v10.432c0,5.704-1.232,11.104-3.384,16.018
			h7.448l13.296-25.736c4.344-8.398,6.64-17.84,6.64-27.304C168,194.168,141.32,167.48,108.512,167.48L108.512,167.48z"/>
	</g>
	<g>
		<path fill="#285FF7" d="M412.512,167.48h-9.031c-32.801,0-59.487,26.688-59.487,59.488c0,9.464,2.296,18.904,6.64,27.304
			L363.936,280h7.448c-2.151-4.912-3.384-10.313-3.384-16.018v-7.734c0-9.816,5.977-18.642,15.088-22.28l18.775-7.512l-0.111-0.208
			c4.624,4.6,10.584,7.808,17.248,8.92l15.624,2.606c7.72,1.28,13.376,7.96,13.376,15.776v10.432c0,5.704-1.232,11.104-3.384,16.018
			h7.448l13.296-25.736c4.344-8.398,6.64-17.84,6.64-27.304C472,194.168,445.32,167.48,412.512,167.48L412.512,167.48z"/>
	</g>
	<g>
		<path fill="#1B1E26" d="M321.008,136l-0.031-0.008C306.271,132.32,296,119.168,296,104h-16c0,20.704,12.968,38.744,32,45.784
			v24.774l-7.775-1.296C262.376,166.288,232,130.432,232,88h-16c0,16.632,4.008,32.368,11.072,46.336
			c-10.176,3.854-19.4,9.68-27.072,17.224V136H8v240h155.92c9.624,13.712,21.976,24.854,36.08,32.95v24.584l-74.384,15.944
			C103.824,454.144,88,473.702,88,496v8h336v-8c0-22.298-15.824-41.856-37.616-46.521L312,433.528v-24.584
			c14.104-8.096,26.456-19.23,36.08-32.952H504V136H321.008z M408,296c-17.648-0.008-32-14.368-32-32.018v-7.734
			c0-6.576,3.943-12.416,10.057-14.85l14.287-5.72c5.008,3.736,10.928,6.304,17.344,7.376l15.634,2.608
			c3.872,0.64,6.68,3.96,6.68,7.888v10.432C440,281.632,425.648,295.992,408,296L408,296z M407.984,312h0.031
			c4.327,0,8.496-0.634,12.487-1.714l2.896,8.696C420.208,324.52,414.456,328,408,328s-12.208-3.48-15.4-9.018l2.896-8.696
			C399.488,311.366,403.656,312,407.984,312L407.984,312z M379.393,328.158C385.568,337.984,396.216,344,408,344
			s22.432-6.018,28.608-15.842l18.694,2.488c15.92,2.12,28.416,14.168,31.752,29.354H328.952
			c3.336-15.186,15.832-27.232,31.752-29.354L379.393,328.158z M24,152h160v177.888c-8.072-7.992-18.664-13.504-30.592-15.097
			l-19.4-2.585l-2.88-8.646C143.72,294.888,152,280.392,152,263.984v-10.432c0-6.424-2.568-12.248-6.728-16.576l18.192-20.792
			l-12.04-10.528L130.44,229.64l-14.128-2.36c-8.792-1.464-16-7.624-18.824-16.088l-1.904-5.72l-15.176,5.064l1.904,5.72
			c0.776,2.328,1.752,4.544,2.904,6.646l-9.104,3.642C63.896,231.424,56,243.088,56,256.248v7.734
			c0,16.408,8.28,30.904,20.872,39.568l-2.88,8.646l-19.4,2.584c-11.928,1.592-22.52,7.104-30.592,15.104V152z M104.392,283.704
			l30.2-34.514c0.832,1.272,1.408,2.736,1.408,4.36v10.432c0,17.648-14.352,32.01-32,32.018c-17.648-0.008-32-14.368-32-32.018
			v-7.734c0-6.576,3.944-12.416,10.056-14.85l14.288-5.72c5.008,3.736,10.928,6.304,17.344,7.376l4.368,0.729l-14.448,16.512
			l-9.952-9.952l-11.312,11.313L104.392,283.704z M103.984,311.998h0.032c4.328,0,8.496-0.632,12.488-1.712l2.896,8.696
			c-3.192,5.536-8.944,9.016-15.4,9.016s-12.208-3.479-15.4-9.016l2.896-8.696C95.488,311.366,99.656,311.998,103.984,311.998
			L103.984,311.998z M75.392,328.158c6.176,9.824,16.824,15.84,28.608,15.84s22.432-6.016,28.608-15.84l18.696,2.488
			c15.92,2.12,28.416,14.168,31.752,29.352H24.952c3.336-15.184,15.832-27.23,31.752-29.352L75.392,328.158z M300.648,450.622
			l-9.032,31.624l-20.849-16.68L300.648,450.622z M273.191,487.998h-34.383L256,474.246L273.191,487.998z M220.384,482.24
			l-9.032-31.624l29.888,14.944L220.384,482.24z M128.968,465.118l65.856-14.11l10.568,36.99H105.04
			C108.032,476.728,117.184,467.64,128.968,465.118z M406.96,487.998H306.607l10.567-36.99l65.856,14.11
			C394.816,467.64,403.969,476.728,406.96,487.998L406.96,487.998z M296,435.056l-40,20l-40-20V416.64
			c12.592,4.774,26.104,7.358,40,7.358c13.896,0,27.408-2.584,40-7.358V435.056z M256,407.998c-27.648,0-53.528-11.8-71.712-32H200
			V178.104c7.616-14.248,20.304-24.848,35.552-29.814c15.32,21.08,38.576,36.176,66.04,40.752L312,190.776V376h15.712
			C309.527,396.198,283.648,407.998,256,407.998z M457.408,314.79l-19.4-2.584l-2.88-8.646C447.72,294.888,456,280.392,456,263.984
			v-10.432c0-11.792-8.44-21.744-20.056-23.672l-15.632-2.608c-8.793-1.464-16-7.624-18.824-16.088l-1.904-5.72l-15.176,5.063
			l1.904,5.722c0.774,2.327,1.752,4.544,2.902,6.646l-9.104,3.642C367.896,231.424,360,243.088,360,256.248v7.734
			c0,16.408,8.279,30.904,20.872,39.568l-2.88,8.646l-19.4,2.584c-11.928,1.592-22.52,7.104-30.592,15.098V152h160v177.888
			C479.928,321.888,469.336,316.375,457.408,314.79L457.408,314.79z"/>
		<path fill="#1B1E26" d="M287.848,335.246C283.225,350.056,270.424,360,256,360s-27.224-9.944-31.848-24.744l-0.512-1.642
			l-15.272,4.77l0.512,1.646C215.6,361.544,234.536,376,256,376s40.4-14.456,47.128-35.978l0.513-1.64l-15.271-4.77L287.848,335.246
			z"/>
		<path fill="#1B1E26" d="M248,280h16v32h-16V280z"/>
		<path fill="#1B1E26" d="M40,40h48V24H24v64h16V40z"/>
		<path fill="#1B1E26" d="M472,88h16V24h-64v16h48V88z"/>
		<path fill="#1B1E26" d="M24,392v64h64v-16H40v-48H24z"/>
		<path fill="#1B1E26" d="M472,440h-48v16h64v-64h-16V440z"/>
	</g>
</g>
</svg>
