<?xml version="1.0" encoding="utf-8"?>
<!-- Generator: Adobe Illustrator 16.0.0, SVG Export Plug-In . SVG Version: 6.00 Build 0)  -->
<!DOCTYPE svg PUBLIC "-//W3C//DTD SVG 1.1//EN" "http://www.w3.org/Graphics/SVG/1.1/DTD/svg11.dtd">
<svg version="1.1" id="Layer_1" xmlns="http://www.w3.org/2000/svg" xmlns:xlink="http://www.w3.org/1999/xlink" x="0px" y="0px"
	 width="433px" height="480px" viewBox="0 0 433 480" enable-background="new 0 0 433 480" xml:space="preserve">
<g>
	<g>
		<circle fill="#285FF7" cx="247.36" cy="208.9" r="108.011"/>
		<path fill="#1B1E26" d="M407.61,31.454c-54.16,0-107.107-10.199-157.379-30.305L247.36,0l-2.861,1.148
			C194.222,21.255,141.271,31.453,87.112,31.453H69.914V193.47H31.34c-12.761,0-23.145,10.384-23.145,23.145V347.77
			c0,12.761,10.384,23.146,23.145,23.146h69.435c0.015,0,0.023,0,0.038,0c18.223,28.954,43.474,52.87,73.579,69.281L247.358,480
			l72.969-39.804c64.451-35.148,104.478-102.588,104.478-175.994V31.454H407.61z M23.624,347.77V216.614
			c0-4.251,3.457-7.714,7.714-7.714h69.435c4.258,0,7.714,3.465,7.714,7.714V347.77c0,4.252-3.457,7.716-7.714,7.716H31.34
			C27.08,355.486,23.624,352.022,23.624,347.77z M123.92,231.977c25.763-1.396,46.291-22.799,46.291-48.896v-39.758
			c0-10.63,8.649-19.287,19.288-19.287s19.288,8.655,19.288,19.287v48.56c0,13.64,11.095,24.733,24.733,24.733h56.56
			c14.728,0,26.718,11.981,26.718,26.719v85.436c0,14.735-11.988,26.717-26.718,26.717H176.405c-6.127,0-11.805-3.048-15.206-8.139
			c-6.265-9.396-16.75-15.005-28.044-15.005h-9.235V231.977L123.92,231.977z M409.376,264.201
			c0,67.753-36.946,130.005-96.43,162.446l-65.586,35.774l-65.584-35.774c-26.842-14.644-49.523-35.729-66.202-61.234
			c4.683-3.936,7.762-9.644,8.192-16.125c15.568,26.855,37.988,48.859,65.4,63.812l58.195,31.747l58.195-31.747
			c54.521-29.734,88.392-86.787,88.392-148.893V147.179h-15.431v117.03c0,56.449-30.781,108.318-80.345,135.345l-50.812,27.714
			l-50.813-27.714c-21.74-11.858-40.003-28.615-53.729-48.892c2.154,1.351,4.082,3.063,5.541,5.247
			c6.264,9.396,16.75,15.007,28.043,15.007H290.08c23.245,0,42.146-18.91,42.146-42.147v-85.436c0-23.238-18.9-42.148-42.146-42.148
			h-56.56c-5.131,0-9.305-4.174-9.305-9.304v-48.56c0-19.142-15.576-34.718-34.718-34.718s-34.718,15.576-34.718,34.718v39.748
			c0,17.593-13.647,31.895-30.891,33.274c-0.078-6.703-3.049-12.676-7.686-16.856V76.858c44.809-2.754,88.885-11.911,131.154-27.266
			c42.271,15.353,86.34,24.51,131.154,27.266v8.604h15.432V62.176l-7.36-0.339C339.879,59.7,293.937,50.38,250.037,34.141
			l-2.679-0.996l-2.678,0.987c-43.906,16.24-89.85,25.561-136.549,27.697l-7.36,0.347v131.295h-15.43V46.884h1.766
			c55.109,0,108.999-10.185,160.249-30.273c51.252,20.09,105.142,30.273,160.25,30.273h1.767v217.317H409.376L409.376,264.201z"/>
		<rect x="378.516" y="116.319" fill="#1B1E26" width="15.432" height="15.432"/>
		<rect x="39.054" y="324.626" fill="#1B1E26" width="54.004" height="15.43"/>
	</g>
</g>
</svg>
