<?xml version="1.0" encoding="utf-8"?>
<!-- Generator: Adobe Illustrator 16.0.0, SVG Export Plug-In . SVG Version: 6.00 Build 0)  -->
<!DOCTYPE svg PUBLIC "-//W3C//DTD SVG 1.1//EN" "http://www.w3.org/Graphics/SVG/1.1/DTD/svg11.dtd">
<svg version="1.1" id="_x33_0" xmlns="http://www.w3.org/2000/svg" xmlns:xlink="http://www.w3.org/1999/xlink" x="0px" y="0px"
	 width="512px" height="512px" viewBox="0 0 512 512" enable-background="new 0 0 512 512" xml:space="preserve">
<g>
	<g>
		<path fill="#285FF7" d="M280.768,8h-48.6c-43.944,0-79.688,35.752-79.688,79.688c0,6.12,0.712,12.248,2.112,18.226l5.184,22.07
			h1.696C164.784,118.696,173.568,112,184,112h8l0.032,0.704c0.16-14.568,10.128-27.218,24.296-30.712l25.496-6.298l-0.008-0.104
			c3.24,7.912,10.568,13.784,19.536,14.776l44.176,4.238C313.736,95.4,320,102.296,320,110.536V112h8
			c10.473,0,19.279,6.752,22.561,16.104h1.664l5.416-21.664C359.2,100.176,360,93.712,360,87.232C360,43.544,324.456,8,280.768,8
			L280.768,8z"/>
	</g>
	<g>
		<g>
			<path fill="#285FF7" d="M48,312h416v16H48V312z"/>
		</g>
	</g>
	<g>
		<circle fill="#1B1E26" cx="288" cy="128" r="8"/>
		<path fill="#1B1E26" d="M184,168h4.2c6.008,16.912,18.096,30.96,33.704,39.392l-4.392,17.584l-52.4,8.729
			c-26.664,4.446-48.384,23.19-56.68,48.92L98.952,312h16.816l7.888-24.464c6.456-20.01,23.344-34.594,44.088-38.05l62.744-10.454
			l6.424-25.682C243,215.031,249.384,216,256,216s13-0.969,19.088-2.648l4.049,16.2L248,260.688V312h16v-33.872l36.912,22.144
			l15.296-55.464l28.048,4.672c20.744,3.464,37.633,18.04,44.088,38.048L396.24,312h16.816l-9.48-29.376
			c-8.297-25.729-30.016-44.474-56.68-48.92l-52.4-8.729l-4.393-17.584c15.607-8.432,27.695-22.479,33.705-39.392H328
			c17.648,0,32-14.354,32-32c0-17.648-14.352-32-32-32h-1c-2.624-9.32-10.6-16.385-20.712-17.354l-44.056-4.23
			C254.12,81.52,248,74.68,248,66.52V40h-16v26.52c0,1.12,0.056,2.226,0.168,3.32l-17.76,4.384
			c-14.88,3.672-25.904,15.36-29.248,29.776H184c-17.648,0-32,14.352-32,32C152,153.648,166.352,168,184,168z M300.344,242.168
			l-9.256,33.56l-22.184-13.312l21.848-21.85L300.344,242.168z M344,136c0,8.824-7.176,16-16,16h-0.473
			c0.297-2.632,0.473-5.296,0.473-8v-24C336.824,120,344,127.176,344,136z M312,110.536V144c0,28.15-20.904,51.456-48,55.358V184
			c12.92,0,24.536-7.176,30.313-18.736l0.84-1.688l-14.313-7.16l-0.84,1.694c-3.048,6.098-9.176,9.89-16,9.89V98.664l40.768,3.912
			C308.889,102.976,312,106.392,312,110.536z M200,113.056c0-11.063,7.504-20.646,18.248-23.304l19.568-4.832
			c2.656,3.768,6.144,6.902,10.184,9.24V199.36c-12.024-1.728-22.824-7.248-31.12-15.358H232v-16h-16v15.12
			c-9.88-10.104-16-23.904-16-39.12V113.056z M184,120v24c0,2.704,0.176,5.368,0.472,8H184c-8.824,0-16-7.176-16-16
			S175.176,120,184,120z"/>
		<circle fill="#1B1E26" cx="192" cy="360" r="8"/>
		<path fill="#1B1E26" d="M216,104h16v16h-16V104z"/>
		<path fill="#1B1E26" d="M216,136h16v16h-16V136z"/>
		<path fill="#1B1E26" d="M401.4,328l6.888,21.352l-41.312,15.488L360,342.768V328h-16v160h-80V328h-16v160h-70.072
			c2.568-12.17,4.352-24.488,5.264-36.896C188.088,454.158,193.816,456,200,456h16v-16h-16c-8.824,0-16-7.178-16-16v-16.912
			c2.592,0.534,5.248,0.912,8,0.912h40v-16h-40c-13.232,0-24-10.77-24-24v-40h-16v14.768L106.136,488H58.992L110.6,328H93.784
			L37.008,504h437.978l-56.776-176H401.4z M360,395.904L389.08,488H360V395.904z M155.624,384.424
			c2.776,6.12,7.096,11.352,12.376,15.376v31.216c0,19.16-2.24,38.288-6.44,56.984h-38.64L155.624,384.424z M405.864,487.998
			L371.8,380.118l41.408-15.526l39.8,123.406H405.864L405.864,487.998z"/>
		<path fill="#1B1E26" d="M56,320c0-13.232-10.768-24-24-24S8,306.768,8,320c0,13.23,10.768,24,24,24S56,333.232,56,320z M32,328
			c-4.408,0-8-3.594-8-8c0-4.408,3.592-8,8-8s8,3.592,8,8C40,324.406,36.408,328,32,328z"/>
		<path fill="#1B1E26" d="M480,296c-13.232,0-24,10.768-24,24c0,13.23,10.768,24,24,24s24-10.77,24-24
			C504,306.768,493.232,296,480,296z M480,328c-4.408,0-8-3.594-8-8c0-4.408,3.592-8,8-8s8,3.592,8,8
			C488,324.406,484.408,328,480,328z"/>
		<path fill="#1B1E26" d="M104,24h32V8H88v48h16V24z"/>
		<path fill="#1B1E26" d="M136,200h-32v-32H88v48h48V200z"/>
		<path fill="#1B1E26" d="M408,56h16V8h-48v16h32V56z"/>
		<path fill="#1B1E26" d="M424,168h-16v32h-32v16h48V168z"/>
	</g>
</g>
</svg>
